# xmcd
#
# Track frame offsets: 
#        150
#        11169
#        31948
#        42048
#        62971
#        74599
#        84879
#        107375
#        120909
#        136976
#        155027
#        173533
#        201713
#        227008
#        242437
#        257833
#
# Disc length: 3626 seconds
#
# Revision: 0
# Processed by: cddbd v1.5.2PL0 Copyright (c) Steve Scherf et al.
# Submitted via: ExactAudioCopy v1.0b3
#
DISCID=d00e2810
DTITLE=Stefan Ulbricht - The Boogie Rocks
DYEAR=1900
DGENRE=
TTITLE0=Big Bigger Boogie
TTITLE1=Night Train
TTITLE2=Pistol Packin' Mama
TTITLE3=Honky Tonk Train Blues
TTITLE4=Choo Choo Ch' Boogie
TTITLE5=Wheels
TTITLE6=Albert Ammons Special
TTITLE7=The Boogie Rocks
TTITLE8=The Preacher
TTITLE9=Dreaming Of Jazzland
TTITLE10=Passeggiata A Fazioli
TTITLE11=Swanee River
TTITLE12=Roll'em Pete
TTITLE13=Sheik Of Araby
TTITLE14=Groovy Keys
TTITLE15=Shout For Joy Reloaded
EXTD=
EXTT0=
EXTT1=
EXTT2=
EXTT3=
EXTT4=
EXTT5=
EXTT6=
EXTT7=
EXTT8=
EXTT9=
EXTT10=
EXTT11=
EXTT12=
EXTT13=
EXTT14=
EXTT15=
PLAYORDER=
